<svg xmlns="http://www.w3.org/2000/svg" xmlns:xlink="http://www.w3.org/1999/xlink" width="1280" height="800" viewBox="0 0 1280 800">
  <defs>
    <clipPath id="clip-Web_1280_2">
      <rect width="1280" height="800"/>
    </clipPath>
  </defs>
  <g id="Web_1280_2" data-name="Web 1280 – 2" clip-path="url(#clip-Web_1280_2)">
    <rect width="1280" height="800" fill="#0654b3"/>
    <g id="Group_1" data-name="Group 1" transform="translate(77.632 112)">
      <g id="Path_2" data-name="Path 2" transform="translate(874.369 129.669) rotate(-9)" fill="#fff">
        <path d="M 38.85919189453125 74.50000762939453 C 38.46266174316406 74.50000762939453 38.05976104736328 74.49321746826172 37.66167068481445 74.47983551025391 C 32.80374908447266 74.3165283203125 28.06071090698242 73.18038940429688 23.56430053710938 71.10295867919922 C 19.21828079223633 69.09501647949219 15.2842903137207 66.29689788818359 11.87162017822266 62.78633880615234 C 8.45814037322998 59.27492904663086 5.738800048828125 55.22827911376953 3.789160013198853 50.75880813598633 C 1.771229982376099 46.13279724121094 0.6706799864768982 41.2541389465332 0.5180799961090088 36.25834655761719 C 0.3660399913787842 31.28102684020996 1.164309978485107 26.48432731628418 2.890729904174805 22.00148773193359 C 4.557139873504639 17.67445755004883 7.014639854431152 13.81789779663086 10.19495964050293 10.53894805908203 C 16.47393989562988 4.065227508544922 24.97806930541992 0.499997615814209 34.14080810546875 0.499997615814209 C 34.53733062744141 0.499997615814209 34.94023132324219 0.5067876577377319 35.33831024169922 0.5201676487922668 C 40.19623184204102 0.6834776401519775 44.93928146362305 1.819617629051208 49.43569946289063 3.897037744522095 C 53.78171920776367 5.904977798461914 57.7157096862793 8.70308780670166 61.12837982177734 12.21365737915039 C 64.54186248779297 15.72506809234619 67.26119995117188 19.77170753479004 69.21083831787109 24.24118804931641 C 71.22876739501953 28.86719703674316 72.32932281494141 33.74584579467773 72.48191833496094 38.74164581298828 C 72.63395690917969 43.71896743774414 71.835693359375 48.51567840576172 70.10926818847656 52.99851608276367 C 68.44286346435547 57.32555770874023 65.98535919189453 61.1821174621582 62.80503845214844 64.46106719970703 C 56.52605819702148 70.93477630615234 48.02193069458008 74.50000762939453 38.85919189453125 74.50000762939453 Z" stroke="none"/>
        <path d="M 34.14080047607422 1.000007629394531 C 25.11450958251953 1.000007629394531 16.73784255981445 4.511299133300781 10.55386734008789 10.88706207275391 C 7.420677185058594 14.1174201965332 4.999412536621094 17.91730880737305 3.357322692871094 22.18117523193359 C 1.65496826171875 26.6015510559082 0.8678436279296875 31.33266448974609 1.017845153808594 36.24308395385742 C 1.168502807617188 41.17496490478516 2.255096435546875 45.99149703979492 4.247451782226563 50.55889892578125 C 6.172966003417969 54.97305297851563 8.858718872070313 58.96969604492188 12.23013305664063 62.43782043457031 C 15.59992218017578 65.90426635742188 19.48383331298828 68.66693115234375 23.77400970458984 70.64906311035156 C 28.20949935913086 72.69833374023438 32.88763427734375 73.81906127929688 37.67848968505859 73.98011779785156 C 38.07094573974609 73.99331665039063 38.46820068359375 74.00000762939453 38.85919952392578 74.00000762939453 C 47.88547515869141 74.00000762939453 56.26214599609375 70.48871612548828 62.44612121582031 64.11296081542969 C 65.57930755615234 60.88259887695313 68.00058746337891 57.08269500732422 69.64267730712891 52.81883239746094 C 71.34503173828125 48.39844131469727 72.13215637207031 43.66732788085938 71.98215484619141 38.75690841674805 C 71.83149719238281 33.82503128051758 70.74490356445313 29.00849533081055 68.75254821777344 24.44109725952148 C 66.82703399658203 20.02695083618164 64.14126586914063 16.03029632568359 60.76985549926758 12.56217575073242 C 57.40007781982422 9.095733642578125 53.51615524291992 6.333061218261719 49.22599029541016 4.350944519042969 C 44.79048919677734 2.301666259765625 40.11235427856445 1.180938720703125 35.32149887084961 1.019882202148438 C 34.92925643920898 1.006698608398438 34.53201293945313 1.000007629394531 34.14080047607422 1.000007629394531 M 34.14080429077148 0 C 34.54421997070313 0 34.94806289672852 0.00676727294921875 35.35511016845703 0.02045440673828125 C 55.50338745117188 0.6977615356445313 72.34938812255859 18.02699661254883 72.981689453125 38.72637557983398 C 73.60121154785156 59.007568359375 58.42427444458008 75 38.85920333862305 75 C 38.45578765869141 75 38.05192565917969 74.99323272705078 37.64487838745117 74.97955322265625 C 17.49660110473633 74.30223083496094 0.6506118774414063 56.97299575805664 0.018310546875 36.27362060546875 C -0.6012115478515625 15.99241256713867 14.57574081420898 0 34.14080429077148 0 Z" stroke="none" fill="#707070"/>
      </g>
      <g id="Path_3" data-name="Path 3" transform="translate(959.368 123)" fill="#ffc417">
        <path d="M 36.83890151977539 74.78237915039063 C 31.96803092956543 74.78237915039063 27.25823974609375 73.90203857421875 22.8403491973877 72.16580963134766 C 18.48526000976563 70.45426940917969 14.59414005279541 67.98377227783203 11.27505970001221 64.82292938232422 C 7.89326000213623 61.60237121582031 5.246109962463379 57.79549789428711 3.407140016555786 53.5080680847168 C 1.478099942207336 49.01065063476563 0.5 44.11357116699219 0.5 38.95285034179688 C 0.5 33.75704956054688 1.4444500207901 28.71722984313965 3.307130098342896 23.973388671875 C 5.105480194091797 19.39336013793945 7.679530143737793 15.28055000305176 10.95777988433838 11.7492094039917 C 14.23357963562012 8.220499992370605 18.04726028442383 5.450489521026611 22.29286956787109 3.516109466552734 C 26.68544960021973 1.514769554138184 31.35140037536621 0.4999995827674866 36.16109085083008 0.4999995827674866 C 40.97652816772461 0.4999995827674866 45.67895126342773 1.515139579772949 50.13771820068359 3.517239570617676 C 54.45695114135742 5.456669807434082 58.34965133666992 8.227869987487793 61.70769119262695 11.75384998321533 C 65.08058166503906 15.29543972015381 67.73229217529297 19.40851974487305 69.58914947509766 23.97884941101074 C 71.52065277099609 28.73288917541504 72.5 33.77087020874023 72.5 38.95285034179688 C 72.5 44.12685775756836 71.55673217773438 49.02582931518555 69.69638824462891 53.51369857788086 C 67.91557312011719 57.80973052978516 65.34606170654297 61.6161994934082 62.05923843383789 64.82736968994141 C 55.48841094970703 71.2469482421875 46.53165817260742 74.78237915039063 36.83890151977539 74.78237915039063 Z" stroke="none"/>
        <path d="M 36.16109848022461 1 C 31.42342376708984 1 26.82722091674805 1.999626159667969 22.50017929077148 3.971115112304688 C 18.31498718261719 5.877952575683594 14.55484390258789 8.609344482421875 11.32422256469727 12.08937835693359 C 8.088691711425781 15.57471084594727 5.547935485839844 19.63454437255859 3.772529602050781 24.15613555908203 C 1.932807922363281 28.84151077270508 1 33.81984329223633 1 38.95284652709961 C 1 44.04541015625 1.9644775390625 48.87619018554688 3.866653442382813 53.31096649169922 C 5.678802490234375 57.53585815429688 8.287353515625 61.28722381591797 11.61987686157227 64.46085357666016 C 14.89193344116211 67.57691192626953 18.72857666015625 70.01266479492188 23.02323150634766 71.70045471191406 C 27.38262176513672 73.41368865966797 32.03088760375977 74.28237915039063 36.83890151977539 74.28237915039063 C 46.40029144287109 74.28237915039063 55.23295593261719 70.79750823974609 61.70982360839844 64.4697265625 C 64.94803619384766 61.30604553222656 67.47969818115234 57.55548858642578 69.2344970703125 53.32223510742188 C 71.06955718994141 48.89536666870117 72 44.06081390380859 72 38.95284652709961 C 72 33.83568954467773 71.03302001953125 28.86103439331055 69.12592315673828 24.16704559326172 C 67.29275512695313 19.65505599975586 64.67508697509766 15.59466552734375 61.34561157226563 12.09867858886719 C 58.03250122070313 8.619865417480469 54.19271087646484 5.8861083984375 49.93291091918945 3.973365783691406 C 45.53897857666016 2.000389099121094 40.90546798706055 1 36.16109848022461 1 M 36.16109848022461 0 C 56.13230895996094 0 73 17.43978881835938 73 38.95284652709961 C 73 60.46591186523438 56.81011199951172 75.28237915039063 36.83890151977539 75.28237915039063 C 16.86767959594727 75.28237915039063 0 60.46591186523438 0 38.95284652709961 C 0 17.43978881835938 16.18987655639648 0 36.16109848022461 0 Z" stroke="none" fill="#707070"/>
      </g>
      <g id="Ellipse_1" data-name="Ellipse 1" transform="translate(880 203.046)" fill="#e83f6f" stroke="#707070" stroke-width="1">
        <ellipse cx="36.5" cy="37.5" rx="36.5" ry="37.5" stroke="none"/>
        <ellipse cx="36.5" cy="37.5" rx="36" ry="37" fill="none"/>
      </g>
      <g id="Ellipse_1-2" data-name="Ellipse 1" transform="translate(958.368 203)" fill="#449c7c" stroke="#707070" stroke-width="1">
        <ellipse cx="36.5" cy="37.5" rx="36.5" ry="37.5" stroke="none"/>
        <ellipse cx="36.5" cy="37.5" rx="36" ry="37" fill="none"/>
      </g>
    </g>
    <text id="vikash_choudhari_" data-name="vikash choudhari
" transform="translate(89 244)" fill="#f8f4f4" font-size="70" font-family="FranklinGothic-Heavy, Franklin Gothic" font-weight="800"><tspan x="55.505" y="64">vikash choudhari</tspan></text>
    <text id="Full_stack_developer_Business_Solution_Consultant_Problem_Solver_" data-name="Full stack developer, Business &amp; Solution Consultant, Problem Solver " transform="translate(154 344)" fill="#fff" font-size="20" font-family="ArialMT, Arial" opacity="0.71"><tspan x="36.76" y="18">Full stack developer, Business &amp; Solution Consultant, </tspan><tspan x="204.641" y="46">Problem Solver</tspan><tspan y="46" font-size="25"> </tspan></text>
    <path id="Path_1" data-name="Path 1" d="M539.456,800H1280V481.45L1068.693,634.2Z" fill="#f9f5f5" stroke="#707070" stroke-width="1"/>
  </g>
</svg>
