<?xml version="1.0" ?><svg enable-background="new 0 0 24 24" id="Layer_1" version="1.1" viewBox="0 0 24 24" xml:space="preserve" xmlns="http://www.w3.org/2000/svg" xmlns:xlink="http://www.w3.org/1999/xlink"><g><circle cx="11.9999905" cy="12" fill="none" r="1.5" stroke="#303C42" stroke-linecap="round" stroke-linejoin="round" stroke-miterlimit="10"/><path d="   M4.5028591,5.0142822C3.1857812,5.0675659,2.2054346,5.4505005,1.7603662,6.2060547   c-1.2776489,2.1687622,2.2710574,6.5209351,7.9262695,9.7208252s11.2753906,4.0358276,12.5529785,1.8670654   c1.2776489-2.1687622-2.2710571-6.5209351-7.9262695-9.7208862c-3.2159424-1.8197021-6.4179077-2.8720093-8.8190308-3.0449219" fill="none" stroke="#303C42" stroke-linecap="round" stroke-linejoin="round" stroke-miterlimit="10"/><circle cx="4.9999905" cy="5" fill="none" r="0.5" stroke="#303C42" stroke-linecap="round" stroke-linejoin="round" stroke-miterlimit="10"/><path d="   M9.3732204,21.3243408C10.1129055,22.6876831,11.018362,23.5,11.9999905,23.5c2.4852905,0,4.5-5.1487427,4.5-11.5   c0-6.3513184-2.0147095-11.5-4.5-11.5s-4.5,5.1486816-4.5,11.5c0,3.374939,0.5723877,6.4006348,1.4784546,8.5043335   C8.9860134,20.5039673,8.9923611,20.5,8.9999905,20.5" fill="none" stroke="#303C42" stroke-linecap="round" stroke-linejoin="round" stroke-miterlimit="10"/><circle cx="8.9999905" cy="21" fill="none" r="0.5" stroke="#303C42" stroke-linecap="round" stroke-linejoin="round" stroke-miterlimit="10"/><path d="   M22.1982327,8.541748c0.3656616-0.9049683,0.4086304-1.7122803,0.0413818-2.3356934   C20.9620266,4.0372925,15.3418484,4.8731689,9.686636,8.0730591c-5.6552124,3.1999512-9.2039185,7.552124-7.9262695,9.7208862   c1.2775879,2.1687622,6.8977661,1.3328247,12.5529785-1.8670654c3.5130615-1.987793,6.2107544-4.4197388,7.4459839-6.4971924" fill="none" stroke="#303C42" stroke-linecap="round" stroke-linejoin="round" stroke-miterlimit="10"/><circle cx="21.9999905" cy="9" fill="none" r="0.5" stroke="#303C42" stroke-linecap="round" stroke-linejoin="round" stroke-miterlimit="10"/></g><g/><g/><g/><g/><g/><g/><g/><g/><g/><g/><g/><g/><g/><g/><g/></svg>